<svg width="347" height="79" viewBox="0 0 347 79" fill="none" xmlns="http://www.w3.org/2000/svg">
<path d="M88.2154 27.016H93.4474L108.087 61H101.175L98.0074 53.224H83.2714L80.1994 61H73.4314L88.2154 27.016ZM95.8954 48.04L90.6634 34.216L85.3354 48.04H95.8954ZM132.186 61H126.714V57.304H126.618C126.106 58.456 125.21 59.48 123.93 60.376C122.682 61.24 121.194 61.672 119.466 61.672C117.962 61.672 116.666 61.416 115.578 60.904C114.522 60.36 113.642 59.656 112.938 58.792C112.266 57.928 111.77 56.936 111.45 55.816C111.13 54.696 110.97 53.544 110.97 52.36V37.96H116.73V50.728C116.73 51.4 116.778 52.104 116.874 52.84C116.97 53.576 117.178 54.248 117.498 54.856C117.818 55.432 118.25 55.912 118.794 56.296C119.37 56.68 120.122 56.872 121.05 56.872C121.946 56.872 122.73 56.696 123.402 56.344C124.106 55.96 124.666 55.48 125.082 54.904C125.53 54.328 125.866 53.672 126.09 52.936C126.314 52.168 126.426 51.4 126.426 50.632V37.96H132.186V61ZM144.956 48.76L136.652 37.96H143.564L148.556 45.112L153.692 37.96H160.316L152.06 48.76L161.468 61H154.46L148.46 52.6L142.412 61H135.596L144.956 48.76ZM161.713 27.016H168.337L174.913 51.976H175.009L182.497 27.016H188.737L196.081 51.976H196.177L202.897 27.016H209.329L199.393 61H193.537L185.569 35.512H185.473L177.505 61H171.649L161.713 27.016ZM225.638 58.072H225.494C224.918 59.096 223.99 59.944 222.71 60.616C221.43 61.256 219.974 61.576 218.342 61.576C217.414 61.576 216.438 61.448 215.414 61.192C214.422 60.968 213.494 60.584 212.63 60.04C211.798 59.464 211.094 58.728 210.518 57.832C209.974 56.904 209.702 55.768 209.702 54.424C209.702 52.696 210.182 51.32 211.142 50.296C212.134 49.272 213.398 48.488 214.934 47.944C216.47 47.4 218.166 47.048 220.022 46.888C221.91 46.696 223.75 46.6 225.542 46.6V46.024C225.542 44.584 225.014 43.528 223.958 42.856C222.934 42.152 221.702 41.8 220.262 41.8C219.046 41.8 217.878 42.056 216.758 42.568C215.638 43.08 214.71 43.704 213.974 44.44L210.998 40.936C212.31 39.72 213.814 38.808 215.51 38.2C217.238 37.592 218.982 37.288 220.742 37.288C222.79 37.288 224.47 37.576 225.782 38.152C227.126 38.728 228.182 39.48 228.95 40.408C229.718 41.336 230.246 42.376 230.534 43.528C230.854 44.68 231.014 45.832 231.014 46.984V61H225.638V58.072ZM225.542 50.488H224.246C223.318 50.488 222.342 50.536 221.318 50.632C220.294 50.696 219.35 50.872 218.486 51.16C217.622 51.416 216.902 51.8 216.326 52.312C215.75 52.792 215.462 53.464 215.462 54.328C215.462 54.872 215.574 55.336 215.798 55.72C216.054 56.072 216.374 56.36 216.758 56.584C217.142 56.808 217.574 56.968 218.054 57.064C218.534 57.16 219.014 57.208 219.494 57.208C221.478 57.208 222.982 56.68 224.006 55.624C225.03 54.568 225.542 53.128 225.542 51.304V50.488ZM237.725 37.96H243.245V41.8H243.341C243.981 40.456 244.877 39.368 246.029 38.536C247.181 37.704 248.525 37.288 250.061 37.288C250.285 37.288 250.525 37.304 250.781 37.336C251.037 37.336 251.261 37.368 251.453 37.432V42.712C251.069 42.616 250.733 42.552 250.445 42.52C250.189 42.488 249.933 42.472 249.677 42.472C248.365 42.472 247.309 42.712 246.509 43.192C245.709 43.672 245.085 44.248 244.637 44.92C244.189 45.592 243.885 46.28 243.725 46.984C243.565 47.688 243.485 48.248 243.485 48.664V61H237.725V37.96ZM267.833 44.104C267.321 43.432 266.617 42.856 265.721 42.376C264.825 41.864 263.849 41.608 262.793 41.608C261.865 41.608 261.017 41.8 260.249 42.184C259.481 42.568 259.097 43.208 259.097 44.104C259.097 45 259.513 45.64 260.345 46.024C261.209 46.376 262.457 46.744 264.089 47.128C264.953 47.32 265.817 47.576 266.681 47.896C267.577 48.216 268.377 48.648 269.081 49.192C269.817 49.704 270.409 50.36 270.857 51.16C271.305 51.928 271.529 52.872 271.529 53.992C271.529 55.4 271.257 56.6 270.713 57.592C270.201 58.552 269.497 59.336 268.601 59.944C267.737 60.552 266.713 60.984 265.529 61.24C264.377 61.528 263.177 61.672 261.929 61.672C260.137 61.672 258.393 61.352 256.697 60.712C255.001 60.04 253.593 59.096 252.473 57.88L256.265 54.328C256.905 55.16 257.737 55.848 258.761 56.392C259.785 56.936 260.921 57.208 262.169 57.208C262.585 57.208 263.001 57.16 263.417 57.064C263.865 56.968 264.265 56.824 264.617 56.632C265.001 56.408 265.305 56.12 265.529 55.768C265.753 55.416 265.865 54.984 265.865 54.472C265.865 53.512 265.417 52.824 264.521 52.408C263.657 51.992 262.345 51.576 260.585 51.16C259.721 50.968 258.873 50.728 258.041 50.44C257.241 50.12 256.521 49.72 255.881 49.24C255.241 48.728 254.729 48.104 254.345 47.368C253.961 46.632 253.769 45.72 253.769 44.632C253.769 43.352 254.025 42.248 254.537 41.32C255.081 40.392 255.785 39.64 256.649 39.064C257.513 38.456 258.489 38.008 259.577 37.72C260.665 37.432 261.785 37.288 262.937 37.288C264.601 37.288 266.217 37.576 267.785 38.152C269.385 38.728 270.649 39.608 271.577 40.792L267.833 44.104Z" fill="#EFEFEF"/>
<path d="M65.6325 4.86787C65.2112 5.94955 64.3984 6.13941 63.4975 6.68354C57.4681 10.3295 53.0602 15.7379 49.4626 21.7181C47.8944 24.328 46.6436 27.1175 45.7139 30.0886C45.4814 30.8314 45.2569 31.3324 45.0403 31.5915C44.0967 32.7324 42.3627 32.6984 41.3293 31.6275C40.5249 30.7918 40.6288 29.7676 40.9703 28.6449C41.6483 26.4203 42.5544 24.1826 43.6914 21.9317C47.7035 13.9864 54.0323 6.1706 61.9685 1.85088C64.1019 0.690321 66.5406 2.53928 65.6325 4.86787Z" fill="#68D570"/>
<path d="M69.6891 13.1977C61.6083 17.4608 55.7274 25.3651 53.134 34.0591C52.421 36.4462 48.5323 35.4108 49.2002 32.8379C49.7885 30.5771 50.697 28.2557 51.9271 25.8766C55.4529 19.0626 60.7649 13.3548 67.5313 9.67385C70.4279 8.0972 72.3629 11.7851 69.6884 13.1973L69.6891 13.1977Z" fill="#68D570"/>
<path d="M74.4532 19.1539C73.4047 19.7416 72.3043 20.3425 71.3667 21.0202C66.3248 24.6549 62.9897 29.7297 60.7635 35.3914C60.4503 36.1888 59.9938 37.8312 59.3706 38.324C58.312 39.1571 56.7751 38.4098 56.7194 37.0825C56.6987 36.5602 57.0447 35.8824 57.1747 35.5087C59.9162 27.601 64.9107 20.5551 72.3687 16.5312C72.8945 16.2483 73.3111 16.0973 73.6196 16.0779C75.3646 15.9701 76.0097 18.2801 74.4521 19.1542L74.4532 19.1539Z" fill="#68D570"/>
<path d="M281.368 4.86787C281.789 5.94955 282.602 6.13941 283.503 6.68354C289.532 10.3295 293.94 15.7379 297.537 21.7181C299.106 24.328 300.356 27.1175 301.286 30.0886C301.519 30.8314 301.743 31.3324 301.96 31.5915C302.903 32.7324 304.637 32.6984 305.671 31.6275C306.475 30.7918 306.371 29.7676 306.03 28.6449C305.352 26.4203 304.446 24.1826 303.309 21.9317C299.297 13.9864 292.968 6.1706 285.031 1.85088C282.898 0.690321 280.459 2.53928 281.368 4.86787Z" fill="#68D570"/>
<path d="M277.311 13.1977C285.392 17.4608 291.273 25.3651 293.866 34.0591C294.579 36.4462 298.468 35.4108 297.8 32.8379C297.212 30.5771 296.303 28.2557 295.073 25.8766C291.547 19.0626 286.235 13.3548 279.469 9.67385C276.572 8.0972 274.637 11.7851 277.312 13.1973L277.311 13.1977Z" fill="#68D570"/>
<path d="M272.547 19.1539C273.595 19.7416 274.696 20.3425 275.633 21.0202C280.675 24.6549 284.01 29.7297 286.236 35.3914C286.55 36.1888 287.006 37.8312 287.629 38.324C288.688 39.1571 290.225 38.4098 290.281 37.0825C290.301 36.5602 289.955 35.8824 289.825 35.5087C287.084 27.601 282.089 20.5551 274.631 16.5312C274.105 16.2483 273.689 16.0973 273.38 16.0779C271.635 15.9701 270.99 18.2801 272.548 19.1542L272.547 19.1539Z" fill="#68D570"/>
</svg>
